<svg id="svg" version="1.1" xmlns="http://www.w3.org/2000/svg" xmlns:xlink="http://www.w3.org/1999/xlink" width="400" height="225" viewBox="0, 0, 400,225"><g id="svgg"><path id="path0" d="M154.568 54.849 C 154.485 54.932,154.418 58.173,154.418 62.052 L 154.418 69.105 154.980 69.105 L 155.543 69.105 155.543 62.577 C 155.543 58.987,155.611 56.050,155.693 56.050 C 155.776 56.050,157.270 56.748,159.014 57.601 C 160.757 58.454,164.209 60.138,166.685 61.343 C 169.162 62.549,173.756 64.788,176.895 66.320 C 181.795 68.711,182.751 69.103,183.648 69.088 C 184.778 69.070,184.101 68.714,168.711 61.226 C 166.111 59.961,162.039 57.975,159.661 56.812 C 155.458 54.758,154.881 54.535,154.568 54.849 M147.665 70.585 C 147.665 70.656,148.207 71.745,148.869 73.005 C 151.598 78.196,152.472 79.842,152.952 80.698 C 153.514 81.697,154.996 84.455,155.765 85.931 L 156.264 86.888 169.522 86.888 L 182.780 86.888 182.780 111.566 L 182.780 136.245 183.594 137.847 C 184.042 138.728,184.689 139.955,185.031 140.574 C 185.953 142.240,187.852 145.772,189.872 149.578 C 191.329 152.323,192.547 154.602,193.422 156.218 C 193.858 157.023,195.246 159.606,196.506 161.958 C 197.767 164.311,198.891 166.331,199.005 166.449 C 199.131 166.579,199.212 147.820,199.212 118.559 L 199.212 70.456 173.438 70.456 C 159.263 70.456,147.665 70.514,147.665 70.585 M200.788 118.672 C 200.788 146.158,200.872 166.796,200.984 166.674 C 201.164 166.479,201.886 165.166,203.827 161.508 C 205.067 159.169,206.592 156.322,210.579 148.903 C 212.707 144.941,215.047 140.585,215.778 139.223 L 217.107 136.747 217.220 111.874 L 217.333 87.001 230.581 86.888 L 243.830 86.775 244.620 85.312 C 245.055 84.508,246.042 82.684,246.813 81.261 C 247.584 79.837,248.852 77.456,249.629 75.971 C 250.407 74.485,251.334 72.751,251.689 72.117 C 252.045 71.483,252.335 70.849,252.335 70.710 C 252.335 70.523,245.548 70.456,226.562 70.456 L 200.788 70.456 200.788 118.672 M154.484 128.641 C 154.527 167.496,154.559 170.737,154.900 170.802 C 155.104 170.842,157.434 169.817,160.078 168.526 C 162.721 167.235,166.809 165.241,169.162 164.095 C 190.431 153.731,190.079 153.910,190.168 153.445 C 190.325 152.630,190.246 152.664,178.728 158.301 C 162.404 166.292,155.795 169.499,155.656 169.499 C 155.594 169.499,155.538 151.292,155.533 129.038 L 155.523 88.576 154.980 87.563 L 154.437 86.550 154.484 128.641 M222.651 88.568 C 222.781 88.697,226.578 90.587,233.315 93.874 C 236.162 95.263,240.771 97.513,243.557 98.874 C 246.342 100.234,250.445 102.235,252.673 103.321 C 254.902 104.406,259.713 106.758,263.365 108.548 C 267.017 110.338,270.385 111.982,270.848 112.201 C 272.029 112.759,272.048 112.746,265.641 115.865 C 262.470 117.409,257.749 119.714,255.149 120.988 C 249.486 123.764,241.531 127.647,236.128 130.274 C 231.854 132.352,220.565 137.865,218.580 138.843 C 217.772 139.241,217.198 139.713,216.903 140.221 C 216.657 140.646,216.552 140.940,216.669 140.875 C 216.786 140.811,218.301 140.070,220.034 139.230 C 221.767 138.390,225.312 136.662,227.912 135.391 C 230.512 134.119,234.868 131.994,237.591 130.668 C 240.315 129.341,244.671 127.215,247.271 125.944 C 255.249 122.041,261.196 119.142,267.192 116.232 C 273.935 112.960,273.607 113.135,273.607 112.794 C 273.607 112.403,273.444 112.321,254.249 102.982 C 250.117 100.972,243.341 97.665,235.115 93.645 C 224.942 88.673,224.473 88.464,223.482 88.464 C 222.968 88.464,222.594 88.510,222.651 88.568 " stroke="none" fill="#fbfbf9" fill-rule="evenodd"></path><path id="path1" d="M155.918 56.875 C 155.836 56.957,155.768 59.731,155.768 63.038 C 155.768 67.702,155.702 69.105,155.475 69.293 C 155.293 69.445,153.481 69.562,150.692 69.602 L 146.201 69.668 146.191 70.272 C 146.186 70.604,146.256 70.829,146.349 70.772 C 146.607 70.612,147.005 71.504,146.853 71.901 C 146.773 72.107,146.861 72.308,147.065 72.386 C 147.256 72.459,147.477 72.816,147.557 73.178 C 147.643 73.572,147.799 73.776,147.946 73.685 C 148.104 73.587,148.139 73.671,148.043 73.920 C 147.955 74.149,147.985 74.250,148.117 74.168 C 148.240 74.093,148.340 74.270,148.340 74.564 C 148.340 74.858,148.568 75.343,148.846 75.643 C 149.125 75.942,149.366 76.290,149.383 76.417 C 149.400 76.543,149.425 76.777,149.439 76.938 C 149.454 77.099,149.725 77.471,150.042 77.764 C 150.358 78.058,150.648 78.585,150.685 78.935 C 150.722 79.286,151.026 79.851,151.360 80.191 C 151.695 80.531,151.906 80.911,151.829 81.035 C 151.753 81.159,151.794 81.261,151.921 81.261 C 152.048 81.261,152.094 81.412,152.023 81.598 C 151.952 81.784,152.011 81.936,152.156 81.936 C 152.300 81.936,152.355 82.038,152.278 82.163 C 152.201 82.287,152.296 82.450,152.489 82.524 C 152.682 82.598,152.783 82.749,152.715 82.860 C 152.646 82.971,152.689 83.061,152.811 83.061 C 152.932 83.061,153.101 83.379,153.186 83.767 C 153.300 84.285,153.393 84.390,153.538 84.161 C 153.695 83.913,153.736 83.910,153.739 84.147 C 153.741 84.310,153.902 84.604,154.097 84.799 C 154.293 84.995,154.403 85.342,154.344 85.571 C 154.284 85.800,154.329 85.988,154.443 85.988 C 154.558 85.988,154.771 86.266,154.916 86.607 C 155.061 86.947,155.311 87.385,155.472 87.579 C 155.710 87.866,155.766 95.527,155.770 128.255 C 155.774 157.069,155.845 168.620,156.020 168.728 C 156.155 168.811,157.293 168.370,158.549 167.747 C 163.617 165.234,174.224 160.055,175.914 159.268 C 176.905 158.807,177.968 158.285,178.278 158.110 C 178.588 157.934,179.600 157.423,180.529 156.975 C 181.458 156.526,183.859 155.362,185.865 154.388 C 187.872 153.414,189.667 152.617,189.855 152.617 C 190.300 152.617,190.972 153.643,190.756 153.992 C 190.655 154.154,190.684 154.203,190.827 154.115 C 191.107 153.942,192.459 156.227,192.459 156.872 C 192.459 157.512,192.702 158.035,192.933 157.892 C 193.044 157.824,193.147 157.875,193.163 158.006 C 193.178 158.137,193.203 158.341,193.219 158.460 C 193.234 158.578,193.441 158.817,193.678 158.990 C 193.943 159.184,194.054 159.446,193.966 159.675 C 193.888 159.878,193.928 160.045,194.055 160.045 C 194.182 160.045,194.226 160.143,194.153 160.262 C 194.079 160.381,194.217 160.677,194.459 160.919 C 194.701 161.161,194.935 161.596,194.979 161.884 C 195.023 162.173,195.178 162.385,195.325 162.355 C 195.471 162.326,195.659 162.664,195.742 163.105 C 195.825 163.546,196.025 163.959,196.188 164.021 C 196.350 164.083,196.427 164.278,196.360 164.453 C 196.293 164.629,196.356 164.772,196.500 164.772 C 196.645 164.772,196.700 164.874,196.623 164.999 C 196.545 165.123,196.640 165.286,196.833 165.360 C 197.026 165.434,197.128 165.584,197.061 165.693 C 196.993 165.803,197.091 165.834,197.278 165.762 C 197.649 165.619,198.021 166.583,197.758 167.008 C 197.678 167.138,197.888 167.520,198.225 167.857 C 198.562 168.194,198.974 168.879,199.140 169.379 C 199.306 169.878,199.504 170.464,199.579 170.681 C 199.882 171.557,200.963 170.332,201.141 168.909 C 201.174 168.646,201.463 168.169,201.782 167.850 C 202.102 167.530,202.364 167.014,202.364 166.704 C 202.364 166.375,202.546 166.041,202.798 165.906 C 203.240 165.669,203.619 164.880,203.526 164.390 C 203.498 164.242,203.681 164.010,203.932 163.876 C 204.193 163.736,204.389 163.403,204.389 163.100 C 204.389 162.808,204.541 162.511,204.727 162.440 C 204.913 162.368,205.065 162.048,205.065 161.727 C 205.065 161.406,205.161 161.204,205.279 161.277 C 205.397 161.350,205.604 161.001,205.738 160.502 C 205.873 160.003,206.077 159.595,206.192 159.595 C 206.307 159.595,206.343 159.443,206.272 159.257 C 206.190 159.043,206.275 158.920,206.504 158.920 C 206.856 158.920,206.962 158.673,206.877 158.053 C 206.854 157.886,206.932 157.809,207.051 157.882 C 207.169 157.955,207.333 157.659,207.415 157.223 C 207.605 156.210,208.416 154.826,208.712 155.009 C 208.853 155.095,208.884 154.973,208.794 154.690 C 208.692 154.370,208.787 154.133,209.106 153.910 C 209.358 153.734,209.511 153.536,209.446 153.472 C 209.252 153.277,210.479 151.022,210.704 151.161 C 210.820 151.233,210.846 151.118,210.764 150.903 C 210.666 150.649,210.702 150.570,210.868 150.673 C 211.142 150.842,211.667 150.065,211.435 149.833 C 211.356 149.754,211.407 149.690,211.548 149.690 C 211.694 149.690,211.742 149.530,211.660 149.316 C 211.560 149.055,211.600 148.993,211.794 149.113 C 211.968 149.220,212.054 149.171,212.023 148.982 C 211.949 148.524,212.688 146.987,213.049 146.848 C 213.229 146.779,213.306 146.574,213.228 146.371 C 213.135 146.127,213.179 146.069,213.370 146.187 C 213.547 146.296,213.623 146.246,213.577 146.048 C 213.478 145.617,214.307 143.839,214.609 143.832 C 214.920 143.825,215.644 142.396,215.644 141.790 C 215.644 141.503,215.741 141.395,215.904 141.496 C 216.055 141.589,216.103 141.558,216.019 141.421 C 215.621 140.777,216.984 139.185,218.627 138.376 C 224.692 135.389,235.541 130.109,243.669 126.187 C 246.145 124.993,248.323 123.917,248.509 123.797 C 248.694 123.676,249.049 123.487,249.297 123.376 C 250.672 122.760,260.852 117.826,268.540 114.050 C 270.970 112.857,270.994 112.645,268.815 111.621 C 267.860 111.172,264.874 109.725,262.178 108.405 C 259.482 107.085,255.025 104.908,252.274 103.567 C 245.567 100.298,238.699 96.938,230.951 93.137 C 227.423 91.405,224.313 89.903,224.040 89.799 C 222.723 89.293,221.604 88.399,222.064 88.219 C 222.644 87.993,224.873 87.963,224.873 88.182 C 224.873 88.436,243.624 88.269,243.781 88.014 C 243.854 87.896,244.157 87.763,244.455 87.717 C 244.752 87.672,245.018 87.543,245.044 87.430 C 245.071 87.318,245.155 86.943,245.232 86.597 C 245.308 86.252,245.459 86.024,245.568 86.091 C 245.677 86.158,245.714 86.018,245.652 85.779 C 245.579 85.500,245.700 85.243,245.988 85.063 C 246.235 84.908,246.385 84.644,246.320 84.475 C 246.252 84.298,246.329 84.196,246.501 84.234 C 246.789 84.297,246.844 84.179,246.905 83.361 C 246.920 83.155,247.001 83.055,247.085 83.138 C 247.272 83.325,249.229 79.796,249.300 79.143 C 249.329 78.884,249.365 78.545,249.380 78.391 C 249.396 78.236,249.564 78.109,249.752 78.109 C 250.080 78.109,250.607 77.198,250.637 76.580 C 250.645 76.420,250.802 76.194,250.987 76.077 C 251.171 75.961,251.243 75.864,251.145 75.862 C 251.047 75.860,251.178 75.632,251.436 75.355 C 251.694 75.078,251.809 74.820,251.693 74.781 C 251.420 74.690,252.066 73.385,252.458 73.234 C 252.624 73.171,252.696 72.961,252.621 72.764 C 252.533 72.536,252.574 72.464,252.736 72.564 C 252.875 72.650,253.098 72.515,253.232 72.263 C 253.373 72.000,253.387 71.806,253.265 71.806 C 252.910 71.806,253.271 70.879,253.689 70.718 C 254.144 70.544,253.908 69.556,253.412 69.555 C 253.253 69.555,237.169 69.529,217.670 69.499 L 182.217 69.443 177.715 67.216 C 169.916 63.358,164.965 61.002,164.657 61.002 C 164.493 61.002,164.326 60.911,164.284 60.800 C 164.213 60.609,156.520 56.725,156.213 56.725 C 156.133 56.725,156.001 56.792,155.918 56.875 M199.443 70.584 C 199.911 71.814,199.708 167.477,199.238 167.472 C 198.990 167.469,197.395 164.771,195.778 161.621 C 193.496 157.175,191.051 152.505,190.760 152.032 C 190.486 151.588,188.523 147.944,185.886 142.982 C 185.248 141.782,184.212 139.887,183.584 138.773 L 182.442 136.747 182.330 112.099 L 182.217 87.451 169.298 87.400 C 154.757 87.342,156.011 87.512,155.076 85.481 C 154.777 84.831,154.411 84.172,154.264 84.017 C 154.117 83.861,153.925 83.507,153.837 83.229 C 153.749 82.951,153.434 82.340,153.138 81.871 C 152.615 81.042,150.180 76.426,148.151 72.420 C 147.601 71.333,147.224 70.371,147.313 70.281 C 147.630 69.963,153.690 69.894,176.315 69.951 L 199.225 70.010 199.443 70.584 M252.576 70.239 C 253.009 70.471,251.322 74.219,249.829 76.343 C 249.598 76.672,249.409 77.032,249.409 77.143 C 249.409 77.326,248.864 78.367,245.663 84.299 C 245.128 85.290,244.594 86.318,244.475 86.585 C 244.129 87.363,244.371 87.350,230.874 87.348 C 219.345 87.346,217.926 87.384,217.805 87.698 C 217.731 87.892,217.670 98.937,217.670 112.243 L 217.670 136.436 216.279 139.068 C 215.514 140.515,214.551 142.382,214.139 143.215 C 213.727 144.049,212.958 145.467,212.431 146.367 C 211.904 147.266,211.035 148.863,210.501 149.916 C 209.967 150.968,209.131 152.538,208.643 153.405 C 208.155 154.271,207.605 155.284,207.420 155.656 C 206.292 157.924,203.042 164.027,202.847 164.242 C 202.719 164.384,202.233 165.219,201.767 166.098 C 201.179 167.207,200.848 167.623,200.685 167.460 C 200.367 167.143,200.238 71.421,200.555 70.589 L 200.777 70.006 226.458 70.006 C 243.773 70.006,252.282 70.082,252.576 70.239 " stroke="none" fill="#b96c07" fill-rule="evenodd"></path><path id="path2" d="M153.391 51.970 C 151.948 53.367,151.730 54.047,151.721 57.175 C 151.718 58.351,151.649 60.757,151.568 62.521 L 151.421 65.729 150.837 65.751 L 150.253 65.774 150.814 65.930 C 151.214 66.041,151.291 66.137,151.082 66.266 C 150.703 66.500,149.631 66.232,149.807 65.947 C 149.890 65.813,149.279 65.729,148.227 65.729 C 147.234 65.729,146.567 65.816,146.641 65.937 C 146.712 66.052,146.186 66.314,145.473 66.519 C 143.541 67.076,143.163 67.524,143.163 69.257 C 143.163 70.297,143.244 70.681,143.464 70.681 C 143.630 70.681,143.904 71.111,144.073 71.638 C 144.241 72.164,144.612 72.817,144.896 73.090 C 145.181 73.363,145.414 73.728,145.414 73.901 C 145.414 74.075,145.671 74.495,145.986 74.835 C 146.302 75.175,146.619 75.750,146.692 76.114 C 146.764 76.477,147.003 76.871,147.222 76.988 C 147.442 77.105,147.748 77.696,147.903 78.300 C 148.094 79.048,148.296 79.390,148.535 79.373 C 148.728 79.359,148.920 79.550,148.963 79.797 C 149.100 80.594,149.512 81.483,149.693 81.372 C 149.881 81.255,150.591 82.856,150.591 83.396 C 150.591 83.590,150.725 83.671,150.919 83.597 C 151.145 83.510,151.289 83.671,151.382 84.110 C 151.689 85.568,152.132 86.970,152.152 86.550 C 152.170 86.176,152.210 86.157,152.392 86.438 C 152.647 86.832,152.657 160.891,152.402 164.434 C 152.245 166.620,152.240 166.578,152.204 162.990 C 152.148 157.418,151.978 158.735,151.906 165.303 C 151.848 170.505,151.881 171.135,152.212 171.321 C 152.416 171.435,152.696 171.872,152.835 172.291 C 152.990 172.763,153.276 173.104,153.583 173.186 C 154.741 173.497,157.912 173.249,157.675 172.866 C 157.554 172.669,158.808 171.975,159.284 171.975 C 159.446 171.975,159.683 171.781,159.810 171.544 C 159.954 171.275,160.463 171.023,161.165 170.872 C 161.784 170.739,162.483 170.437,162.719 170.201 C 162.956 169.965,163.555 169.703,164.051 169.619 C 164.674 169.514,164.988 169.333,165.067 169.033 C 165.132 168.783,165.375 168.599,165.641 168.599 C 166.280 168.599,167.260 168.124,167.112 167.886 C 166.945 167.615,168.430 167.023,169.277 167.023 C 169.801 167.023,169.953 166.931,169.903 166.645 C 169.851 166.347,170.159 166.194,171.341 165.925 C 172.375 165.691,172.877 165.465,172.946 165.203 C 173.010 164.957,173.384 164.764,173.996 164.660 C 174.519 164.572,175.110 164.308,175.310 164.075 C 175.511 163.841,176.032 163.532,176.470 163.388 C 176.907 163.245,177.389 162.952,177.541 162.738 C 177.693 162.524,178.199 162.280,178.666 162.198 C 180.018 161.958,180.288 161.841,180.174 161.545 C 180.070 161.274,181.634 160.720,182.504 160.720 C 182.720 160.720,183.023 160.518,183.178 160.270 C 183.335 160.019,183.703 159.820,184.009 159.820 C 184.628 159.820,185.704 159.392,186.044 159.010 C 186.168 158.871,186.741 158.631,187.318 158.477 C 188.043 158.284,188.404 158.056,188.486 157.741 C 188.568 157.430,188.723 157.330,188.975 157.427 C 189.178 157.505,189.466 157.569,189.614 157.569 C 189.763 157.569,190.078 158.069,190.315 158.680 C 190.552 159.291,190.918 159.835,191.128 159.890 C 191.373 159.954,191.567 160.325,191.668 160.923 C 191.781 161.595,191.924 161.839,192.177 161.795 C 192.434 161.750,192.603 162.057,192.803 162.930 C 192.973 163.673,193.258 164.254,193.556 164.462 C 193.819 164.647,194.035 164.990,194.035 165.224 C 194.035 165.694,194.492 166.840,194.755 167.032 C 194.983 167.198,195.611 169.012,195.611 169.503 C 195.611 169.722,195.755 169.957,195.932 170.025 C 196.110 170.093,196.321 170.594,196.403 171.139 C 196.889 174.379,197.619 175.116,200.352 175.123 C 202.370 175.129,202.938 174.303,203.447 170.624 C 203.659 169.092,203.939 168.543,204.187 169.176 C 204.321 169.518,204.361 169.455,204.374 168.885 C 204.392 168.031,205.037 166.304,205.281 166.455 C 205.490 166.584,205.965 165.575,205.965 164.999 C 205.965 164.765,206.152 164.440,206.381 164.278 C 206.610 164.117,206.870 163.593,206.959 163.116 C 207.047 162.638,207.367 162.019,207.668 161.740 C 207.969 161.461,208.280 160.889,208.360 160.470 C 208.543 159.505,208.862 158.875,209.094 159.018 C 209.193 159.079,209.394 158.590,209.541 157.932 C 209.710 157.177,210.014 156.557,210.363 156.253 C 210.668 155.988,210.919 155.543,210.921 155.263 C 210.925 154.625,211.250 154.093,211.529 154.266 C 211.646 154.338,211.883 153.880,212.055 153.248 C 212.256 152.509,212.511 152.061,212.768 151.994 C 213.013 151.930,213.168 151.677,213.168 151.341 C 213.168 150.656,213.721 149.560,214.150 149.396 C 214.328 149.328,214.546 148.847,214.633 148.328 C 214.744 147.675,214.924 147.350,215.219 147.273 C 215.453 147.212,215.644 147.054,215.644 146.922 C 215.644 146.531,216.540 144.797,216.894 144.504 C 217.073 144.355,217.220 144.101,217.220 143.940 C 217.220 143.779,217.600 143.523,218.064 143.371 C 218.528 143.218,219.028 142.925,219.174 142.718 C 219.320 142.512,219.852 142.219,220.356 142.068 C 220.860 141.917,221.272 141.711,221.272 141.608 C 221.272 141.506,221.729 141.248,222.287 141.035 C 222.846 140.822,223.407 140.454,223.533 140.217 C 223.685 139.933,224.011 139.783,224.487 139.778 C 225.274 139.770,226.380 139.261,226.265 138.960 C 226.226 138.857,226.808 138.622,227.559 138.436 C 228.347 138.242,228.925 137.977,228.925 137.810 C 228.925 137.501,228.933 137.498,230.557 137.078 C 231.145 136.926,231.626 136.673,231.626 136.515 C 231.626 136.358,232.133 136.108,232.752 135.959 C 233.404 135.803,233.877 135.563,233.877 135.389 C 233.877 135.224,234.105 135.025,234.384 134.947 C 235.543 134.620,236.128 134.312,236.128 134.028 C 236.128 133.840,236.644 133.620,237.497 133.443 C 238.294 133.279,238.947 133.009,239.060 132.798 C 239.166 132.599,239.815 132.301,240.501 132.137 C 241.344 131.934,241.790 131.704,241.879 131.423 C 241.952 131.194,242.182 131.007,242.390 131.006 C 243.162 131.004,244.457 130.527,244.457 130.245 C 244.457 130.084,244.886 129.825,245.410 129.668 C 245.934 129.511,246.497 129.191,246.661 128.957 C 246.824 128.723,247.162 128.531,247.411 128.531 C 247.918 128.531,248.731 128.144,249.071 127.741 C 249.195 127.594,249.868 127.353,250.567 127.204 C 251.504 127.005,251.869 126.818,251.953 126.494 C 252.016 126.253,252.255 126.055,252.483 126.054 C 253.230 126.052,254.581 125.591,254.527 125.357 C 254.472 125.120,255.998 124.489,256.642 124.483 C 256.845 124.481,257.059 124.291,257.120 124.060 C 257.191 123.788,257.522 123.585,258.059 123.484 C 258.516 123.399,259.056 123.135,259.259 122.897 C 259.462 122.660,260.171 122.344,260.834 122.196 C 261.532 122.040,262.128 121.763,262.248 121.538 C 262.364 121.321,262.975 121.025,263.633 120.868 C 264.281 120.712,264.967 120.413,265.157 120.202 C 265.348 119.991,265.924 119.702,266.437 119.558 C 266.950 119.415,267.428 119.147,267.499 118.962 C 267.570 118.778,267.828 118.627,268.072 118.627 C 268.316 118.627,268.579 118.526,268.655 118.402 C 268.732 118.278,268.980 118.177,269.206 118.177 C 269.454 118.177,269.606 118.026,269.587 117.798 C 269.564 117.528,269.813 117.367,270.456 117.236 C 272.168 116.888,272.366 116.817,272.312 116.574 C 272.281 116.440,272.748 116.202,273.348 116.045 C 275.661 115.439,276.613 112.357,275.010 110.659 C 274.672 110.301,274.395 109.870,274.395 109.703 C 274.395 109.518,274.143 109.398,273.753 109.398 C 272.879 109.398,271.662 108.964,271.200 108.487 C 270.990 108.270,270.310 108.023,269.689 107.938 C 268.913 107.831,268.522 107.662,268.438 107.397 C 268.371 107.185,267.936 106.877,267.472 106.712 C 267.009 106.548,266.461 106.238,266.256 106.024 C 266.051 105.811,265.459 105.568,264.939 105.485 C 264.299 105.382,263.961 105.202,263.889 104.926 C 263.811 104.631,263.383 104.436,262.336 104.217 C 261.197 103.979,260.889 103.828,260.889 103.505 C 260.889 103.204,260.718 103.095,260.247 103.095 C 259.326 103.095,258.188 102.653,258.188 102.294 C 258.188 102.124,257.761 101.872,257.231 101.728 C 256.705 101.585,256.137 101.428,255.970 101.379 C 255.802 101.330,255.723 101.139,255.794 100.955 C 255.887 100.712,255.766 100.619,255.356 100.619 C 254.651 100.619,253.403 99.995,253.569 99.725 C 253.699 99.516,253.404 99.399,252.110 99.150 C 251.677 99.067,251.171 98.810,250.985 98.578 C 250.799 98.347,250.090 98.016,249.409 97.843 C 248.728 97.670,248.222 97.456,248.284 97.367 C 248.471 97.099,247.321 96.584,246.518 96.575 C 245.977 96.569,245.735 96.449,245.655 96.147 C 245.589 95.895,245.171 95.608,244.607 95.430 C 244.091 95.266,243.496 94.958,243.285 94.744 C 243.074 94.531,242.567 94.289,242.160 94.207 C 240.873 93.948,240.630 93.843,240.630 93.549 C 240.630 93.385,240.100 93.144,239.392 92.985 C 238.588 92.805,238.154 92.594,238.154 92.382 C 238.154 92.007,237.510 91.704,236.297 91.507 C 234.440 91.205,235.676 90.981,240.068 90.825 C 243.560 90.700,244.682 90.590,244.682 90.374 C 244.682 90.217,244.931 90.026,245.235 89.949 C 245.917 89.778,246.786 88.648,247.155 87.451 C 247.308 86.956,247.548 86.447,247.689 86.321 C 248.066 85.984,248.509 85.142,248.509 84.764 C 248.509 84.583,248.674 84.342,248.875 84.229 C 249.077 84.116,249.408 83.529,249.612 82.924 C 249.815 82.318,250.089 81.843,250.221 81.867 C 250.352 81.891,250.596 81.410,250.763 80.798 C 250.985 79.983,251.176 79.685,251.476 79.685 C 251.726 79.685,251.885 79.521,251.885 79.262 C 251.885 78.696,252.518 77.209,252.759 77.209 C 252.864 77.209,253.161 76.702,253.418 76.083 C 253.676 75.464,253.985 74.958,254.106 74.958 C 254.227 74.958,254.444 74.602,254.587 74.168 C 254.730 73.734,255.042 73.275,255.280 73.147 C 255.517 73.020,255.712 72.750,255.712 72.546 C 255.712 71.878,256.246 70.681,256.545 70.681 C 257.005 70.681,256.915 68.425,256.433 67.867 C 255.390 66.662,257.999 66.751,220.094 66.629 C 188.386 66.527,184.969 66.482,184.731 66.159 C 184.336 65.623,183.570 65.279,182.774 65.279 C 182.252 65.279,182.031 65.159,181.945 64.828 C 181.857 64.491,181.638 64.378,181.073 64.378 C 180.245 64.378,178.685 63.730,178.854 63.457 C 178.972 63.265,178.584 63.126,177.292 62.897 C 176.758 62.802,176.381 62.596,176.321 62.367 C 176.265 62.153,175.785 61.863,175.206 61.691 C 174.646 61.526,174.135 61.251,174.070 61.081 C 174.004 60.910,173.503 60.658,172.956 60.520 C 172.408 60.382,171.837 60.099,171.687 59.891 C 171.536 59.683,170.855 59.363,170.174 59.180 C 169.225 58.926,168.952 58.758,169.003 58.462 C 169.054 58.159,168.902 58.075,168.298 58.075 C 167.469 58.075,165.763 57.460,165.982 57.240 C 166.139 57.083,165.083 56.500,164.642 56.500 C 164.475 56.500,164.236 56.310,164.112 56.078 C 163.986 55.843,163.435 55.543,162.866 55.400 C 162.267 55.249,161.846 55.013,161.846 54.829 C 161.846 54.640,161.385 54.397,160.686 54.218 C 159.967 54.034,159.488 53.778,159.428 53.546 C 159.370 53.324,158.899 53.052,158.280 52.882 C 157.703 52.724,157.008 52.359,156.736 52.071 C 156.080 51.379,154.064 51.318,153.391 51.970 M157.206 55.352 C 159.353 56.384,166.971 60.101,175.352 64.204 C 178.633 65.810,182.236 67.570,183.360 68.115 L 185.403 69.105 219.995 69.105 C 243.221 69.105,254.586 69.180,254.586 69.333 C 254.586 69.538,253.117 72.422,251.951 74.508 C 251.708 74.941,250.922 76.410,250.204 77.772 C 249.486 79.133,248.620 80.754,248.280 81.373 C 246.967 83.766,246.284 85.034,245.464 86.607 L 244.613 88.239 234.800 88.244 C 225.018 88.249,224.988 88.250,225.549 88.689 C 225.858 88.931,226.187 89.131,226.279 89.134 C 226.371 89.137,229.106 90.443,232.357 92.037 C 235.607 93.631,240.039 95.796,242.206 96.848 C 244.373 97.901,248.475 99.902,251.322 101.295 C 254.170 102.688,259.184 105.138,262.465 106.739 C 274.113 112.423,273.607 112.149,273.607 112.774 C 273.607 113.399,274.192 113.078,264.041 118.018 C 261.131 119.434,256.624 121.632,254.024 122.903 C 251.424 124.174,247.169 126.251,244.569 127.520 C 241.970 128.788,237.665 130.890,235.003 132.191 C 232.341 133.492,227.732 135.738,224.761 137.182 C 215.911 141.482,216.133 141.354,215.523 142.496 C 215.228 143.048,212.922 147.349,210.399 152.054 C 207.877 156.759,205.277 161.621,204.623 162.859 C 203.969 164.097,203.256 165.414,203.040 165.785 C 201.385 168.622,200.561 170.460,200.545 171.350 C 200.535 171.880,200.476 172.186,200.414 172.032 C 200.267 171.668,199.733 171.668,199.586 172.032 C 199.524 172.186,199.465 171.867,199.455 171.323 C 199.442 170.604,199.167 169.834,198.451 168.509 C 197.909 167.506,197.035 165.875,196.508 164.885 C 195.981 163.894,195.215 162.459,194.805 161.695 C 194.395 160.931,193.337 158.931,192.453 157.251 C 191.569 155.571,190.761 154.143,190.656 154.079 C 190.440 153.945,187.755 155.231,166.911 165.445 C 156.134 170.726,155.315 171.107,154.915 171.030 C 154.554 170.961,154.523 168.315,154.418 128.416 L 154.305 85.875 153.716 84.862 C 153.391 84.305,152.694 83.039,152.166 82.048 C 150.226 78.410,149.722 77.466,147.589 73.481 C 146.393 71.245,145.414 69.348,145.414 69.265 C 145.414 69.182,147.414 69.087,149.859 69.054 L 154.305 68.993 154.362 62.015 C 154.433 53.275,154.170 53.892,157.206 55.352 " stroke="none" fill="#150e0c" fill-rule="evenodd"></path><path id="path3" d="M155.594 62.634 L 155.645 69.218 155.763 62.772 L 155.881 56.327 157.006 56.881 C 158.451 57.592,159.145 57.867,159.145 57.730 C 159.145 57.620,155.894 56.050,155.666 56.050 C 155.598 56.050,155.566 59.012,155.594 62.634 M159.494 58.033 C 159.785 58.281,160.945 58.766,160.945 58.639 C 160.945 58.515,159.684 57.850,159.448 57.850 C 159.356 57.850,159.376 57.932,159.494 58.033 M163.276 59.902 C 164.496 60.522,165.537 60.988,165.588 60.936 C 165.687 60.837,161.464 58.742,161.207 58.762 C 161.125 58.769,162.056 59.281,163.276 59.902 M165.672 59.764 C 165.982 59.941,166.337 60.085,166.460 60.085 C 166.584 60.085,166.432 59.941,166.123 59.764 C 165.813 59.587,165.459 59.442,165.335 59.442 C 165.211 59.442,165.363 59.587,165.672 59.764 M166.444 61.425 C 166.511 61.534,166.795 61.680,167.076 61.751 C 167.568 61.875,167.570 61.868,167.149 61.553 C 166.665 61.192,166.253 61.117,166.444 61.425 M167.794 62.100 C 167.861 62.209,168.146 62.356,168.426 62.426 C 168.918 62.550,168.921 62.543,168.499 62.229 C 168.016 61.867,167.604 61.792,167.794 62.100 M171.863 64.085 C 174.550 65.451,175.802 66.016,175.802 65.861 C 175.802 65.743,169.740 62.797,169.531 62.814 C 169.452 62.820,170.501 63.392,171.863 64.085 M176.151 66.136 C 176.442 66.385,177.603 66.869,177.603 66.743 C 177.603 66.618,176.341 65.954,176.106 65.954 C 176.013 65.954,176.033 66.036,176.151 66.136 M177.868 66.969 C 178.050 67.151,182.119 69.106,182.289 69.094 C 182.494 69.078,178.223 66.880,177.959 66.866 C 177.846 66.859,177.804 66.906,177.868 66.969 M147.440 70.511 C 147.440 70.869,149.252 74.346,149.375 74.223 C 149.425 74.173,149.060 73.363,148.565 72.423 C 148.070 71.484,147.665 70.656,147.665 70.585 C 147.665 70.514,159.263 70.456,173.438 70.456 L 199.212 70.456 199.212 118.559 C 199.212 148.105,199.132 166.580,199.003 166.449 C 198.889 166.331,197.607 164.007,196.156 161.283 C 194.705 158.559,193.416 156.230,193.293 156.106 C 193.078 155.890,194.922 159.468,197.237 163.759 C 197.838 164.873,198.496 166.114,198.700 166.517 C 198.904 166.919,199.153 167.248,199.254 167.248 C 199.356 167.248,199.413 145.445,199.381 118.796 L 199.325 70.343 173.382 70.286 C 152.686 70.240,147.440 70.286,147.440 70.511 M200.713 70.381 C 200.504 70.589,200.523 167.198,200.732 167.323 C 200.824 167.379,201.181 166.878,201.523 166.211 C 201.866 165.543,202.096 164.997,202.034 164.997 C 201.973 164.997,201.716 165.402,201.463 165.898 C 201.210 166.393,200.955 166.798,200.896 166.798 C 200.836 166.798,200.788 145.121,200.788 118.627 L 200.788 70.456 226.562 70.456 C 244.654 70.456,252.335 70.527,252.335 70.696 C 252.335 70.828,252.231 71.132,252.102 71.371 C 251.974 71.610,251.921 71.806,251.984 71.806 C 252.192 71.806,252.771 70.516,252.627 70.372 C 252.436 70.182,200.903 70.190,200.713 70.381 M250.676 73.974 C 250.112 75.061,249.686 75.985,249.730 76.029 C 249.774 76.073,250.278 75.227,250.851 74.149 C 251.425 73.072,251.850 72.147,251.798 72.094 C 251.745 72.041,251.240 72.887,250.676 73.974 M149.916 75.408 C 150.168 75.903,150.426 76.308,150.487 76.308 C 150.549 76.308,150.393 75.903,150.141 75.408 C 149.888 74.913,149.631 74.508,149.569 74.508 C 149.507 74.508,149.663 74.913,149.916 75.408 M248.621 77.884 C 248.185 78.751,247.878 79.460,247.940 79.460 C 248.002 79.460,248.410 78.751,248.846 77.884 C 249.283 77.017,249.589 76.308,249.527 76.308 C 249.465 76.308,249.058 77.017,248.621 77.884 M150.598 76.659 C 150.594 76.790,150.740 77.094,150.921 77.335 C 151.103 77.575,151.255 77.664,151.259 77.533 C 151.263 77.402,151.117 77.098,150.936 76.858 C 150.754 76.618,150.602 76.528,150.598 76.659 M151.941 79.235 C 152.316 79.977,152.674 80.585,152.736 80.585 C 152.798 80.585,152.542 79.977,152.167 79.235 C 151.792 78.492,151.434 77.884,151.372 77.884 C 151.310 77.884,151.566 78.492,151.941 79.235 M246.933 81.035 C 246.161 82.565,246.202 82.897,246.982 81.429 C 247.617 80.235,247.849 79.685,247.717 79.685 C 247.661 79.685,247.308 80.293,246.933 81.035 M153.517 82.161 C 153.892 82.904,154.245 83.512,154.301 83.512 C 154.433 83.512,154.201 82.961,153.566 81.767 C 152.786 80.300,152.745 80.631,153.517 82.161 M245.606 83.455 C 245.366 83.920,244.870 84.856,244.503 85.537 L 243.836 86.775 230.584 86.888 L 217.333 87.001 217.220 111.874 L 217.107 136.747 216.485 137.851 C 216.143 138.458,215.908 139.000,215.964 139.055 C 216.019 139.110,216.350 138.614,216.698 137.951 L 217.333 136.747 217.445 111.986 L 217.558 87.226 230.749 87.168 L 243.941 87.110 245.111 84.860 C 245.755 83.623,246.227 82.611,246.161 82.611 C 246.096 82.611,245.846 82.991,245.606 83.455 M154.562 84.074 C 154.656 84.322,155.047 85.082,155.429 85.763 L 156.125 87.001 169.150 87.059 C 178.314 87.100,182.265 87.191,182.478 87.368 C 182.710 87.560,182.780 87.533,182.780 87.253 C 182.780 86.920,181.601 86.888,169.522 86.888 L 156.264 86.888 155.541 85.481 C 154.798 84.036,154.246 83.242,154.562 84.074 M154.977 87.556 L 155.543 88.674 155.543 129.086 C 155.543 151.313,155.619 169.496,155.712 169.491 C 155.962 169.479,157.037 168.841,156.823 168.832 C 156.722 168.827,156.443 168.929,156.204 169.057 C 155.774 169.287,155.768 168.763,155.768 128.982 L 155.768 88.674 155.202 87.556 C 154.890 86.941,154.584 86.438,154.523 86.438 C 154.461 86.438,154.665 86.941,154.977 87.556 M222.158 88.559 C 222.304 88.735,222.747 88.987,223.142 89.118 C 223.801 89.338,223.824 89.330,223.423 89.023 C 223.183 88.839,222.879 88.674,222.748 88.655 C 222.617 88.636,222.966 88.550,223.523 88.464 L 224.536 88.306 223.214 88.272 C 222.094 88.244,221.933 88.288,222.158 88.559 M225.098 88.801 C 225.408 88.978,225.763 89.123,225.886 89.123 C 226.010 89.123,225.858 88.978,225.549 88.801 C 225.239 88.624,224.885 88.480,224.761 88.480 C 224.637 88.480,224.789 88.624,225.098 88.801 M224.069 89.562 C 224.136 89.671,224.421 89.818,224.701 89.888 C 225.193 90.012,225.196 90.005,224.774 89.691 C 224.290 89.329,223.878 89.254,224.069 89.562 M182.663 112.099 C 182.663 124.541,182.690 129.631,182.724 123.410 C 182.757 117.189,182.757 107.009,182.724 100.788 C 182.690 94.567,182.663 99.657,182.663 112.099 M225.342 90.123 C 225.574 90.331,226.899 90.940,226.899 90.839 C 226.899 90.709,225.651 90.039,225.410 90.039 C 225.321 90.039,225.291 90.077,225.342 90.123 M229.488 92.222 C 232.175 93.589,233.427 94.153,233.427 93.998 C 233.427 93.880,227.365 90.935,227.156 90.951 C 227.077 90.958,228.126 91.530,229.488 92.222 M233.776 94.274 C 234.067 94.522,235.228 95.007,235.228 94.880 C 235.228 94.756,233.967 94.091,233.731 94.091 C 233.638 94.091,233.658 94.173,233.776 94.274 M235.549 95.189 C 235.616 95.298,235.901 95.445,236.181 95.516 C 236.673 95.640,236.676 95.633,236.254 95.318 C 235.770 94.956,235.358 94.881,235.549 95.189 M239.810 97.268 C 241.526 98.136,242.970 98.805,243.019 98.755 C 243.119 98.655,237.119 95.660,236.856 95.679 C 236.765 95.685,238.095 96.400,239.810 97.268 M243.436 99.030 C 243.502 99.137,243.863 99.331,244.239 99.462 C 244.615 99.593,244.869 99.613,244.803 99.507 C 244.737 99.400,244.375 99.206,243.999 99.075 C 243.624 98.943,243.370 98.924,243.436 99.030 M245.161 99.822 C 245.385 100.047,251.273 102.882,251.351 102.804 C 251.397 102.757,250.061 102.045,248.381 101.219 C 245.582 99.844,244.877 99.538,245.161 99.822 M252.560 102.071 C 252.560 102.133,252.864 102.340,253.236 102.532 C 253.607 102.724,253.911 102.831,253.911 102.769 C 253.911 102.707,253.607 102.499,253.236 102.307 C 252.864 102.115,252.560 102.009,252.560 102.071 M251.660 102.988 C 251.660 103.098,252.920 103.770,253.125 103.770 C 253.201 103.770,253.206 103.679,253.137 103.567 C 253.004 103.353,251.660 102.826,251.660 102.988 M253.585 103.953 C 253.876 104.201,255.037 104.686,255.037 104.559 C 255.037 104.435,253.775 103.770,253.540 103.770 C 253.447 103.770,253.467 103.852,253.585 103.953 M257.288 105.796 C 258.464 106.403,259.527 106.899,259.651 106.899 C 259.775 106.899,258.914 106.403,257.738 105.796 C 256.562 105.190,255.498 104.694,255.374 104.694 C 255.250 104.694,256.111 105.190,257.288 105.796 M260.313 107.271 C 260.797 107.632,261.209 107.707,261.018 107.399 C 260.951 107.290,260.667 107.143,260.386 107.073 C 259.894 106.949,259.892 106.956,260.313 107.271 M262.915 107.259 C 263.225 107.436,263.579 107.581,263.703 107.581 C 263.827 107.581,263.675 107.436,263.365 107.259 C 263.056 107.082,262.701 106.938,262.577 106.938 C 262.454 106.938,262.606 107.082,262.915 107.259 M261.339 107.716 C 261.339 107.825,262.599 108.497,262.805 108.497 C 262.880 108.497,262.885 108.406,262.816 108.295 C 262.684 108.080,261.339 107.553,261.339 107.716 M263.245 108.709 C 263.310 108.816,263.672 109.011,264.048 109.142 C 264.424 109.273,264.677 109.293,264.611 109.186 C 264.545 109.079,264.184 108.885,263.808 108.754 C 263.432 108.623,263.179 108.603,263.245 108.709 M265.037 109.596 C 265.104 109.705,265.388 109.852,265.669 109.922 C 266.161 110.046,266.164 110.039,265.742 109.724 C 265.258 109.363,264.846 109.288,265.037 109.596 M267.642 110.861 C 268.447 111.282,269.207 111.627,269.330 111.627 C 269.454 111.627,268.897 111.282,268.092 110.861 C 267.288 110.440,266.528 110.095,266.404 110.095 C 266.280 110.095,266.837 110.440,267.642 110.861 M269.741 111.810 C 269.819 111.937,270.189 112.167,270.564 112.322 C 271.559 112.734,271.495 112.795,268.539 114.230 C 267.051 114.952,265.876 115.585,265.926 115.636 C 266.049 115.758,271.397 113.073,271.562 112.806 C 271.632 112.692,271.311 112.422,270.848 112.206 C 270.385 111.991,269.914 111.761,269.802 111.697 C 269.690 111.632,269.663 111.683,269.741 111.810 M264.772 116.036 C 264.370 116.211,264.041 116.404,264.041 116.466 C 264.041 116.640,265.377 116.131,265.517 115.904 C 265.675 115.648,265.657 115.651,264.772 116.036 M261.339 117.727 C 260.163 118.333,259.270 118.834,259.354 118.841 C 259.525 118.853,263.594 116.898,263.776 116.716 C 264.106 116.386,263.256 116.738,261.339 117.727 M258.188 119.302 C 257.755 119.539,257.481 119.738,257.580 119.743 C 257.819 119.755,259.088 119.095,259.088 118.959 C 259.088 118.811,259.075 118.816,258.188 119.302 M255.093 120.763 C 254.690 120.938,254.361 121.132,254.361 121.193 C 254.361 121.367,255.697 120.858,255.838 120.631 C 255.996 120.375,255.978 120.379,255.093 120.763 M250.816 122.844 C 249.175 123.661,247.871 124.367,247.917 124.413 C 247.999 124.495,253.856 121.683,254.091 121.448 C 254.427 121.112,253.522 121.498,250.816 122.844 M246.764 124.815 C 246.362 124.990,246.033 125.183,246.033 125.245 C 246.033 125.419,247.369 124.910,247.509 124.682 C 247.667 124.427,247.649 124.430,246.764 124.815 M244.851 125.734 C 244.510 125.918,244.232 126.112,244.232 126.163 C 244.232 126.325,245.577 125.796,245.709 125.583 C 245.890 125.290,245.562 125.348,244.851 125.734 M240.855 127.743 C 239.308 128.535,238.112 129.188,238.198 129.195 C 238.364 129.207,243.795 126.567,243.976 126.386 C 244.314 126.048,243.347 126.469,240.855 127.743 M237.059 129.574 C 236.642 129.756,236.354 129.958,236.419 130.022 C 236.543 130.147,237.929 129.496,237.929 129.313 C 237.929 129.185,237.992 129.166,237.059 129.574 M235.284 130.443 C 234.882 130.617,234.553 130.811,234.553 130.872 C 234.553 131.046,235.889 130.538,236.029 130.310 C 236.187 130.055,236.169 130.058,235.284 130.443 M233.371 131.361 C 233.030 131.546,232.752 131.742,232.752 131.798 C 232.752 131.923,233.914 131.437,234.204 131.190 C 234.556 130.889,234.049 130.994,233.371 131.361 M231.626 132.245 C 231.317 132.422,231.165 132.567,231.289 132.567 C 231.412 132.567,231.767 132.422,232.077 132.245 C 232.386 132.068,232.538 131.924,232.414 131.924 C 232.290 131.924,231.936 132.068,231.626 132.245 M230.051 133.033 C 229.617 133.270,229.344 133.469,229.443 133.474 C 229.681 133.486,230.951 132.826,230.951 132.690 C 230.951 132.542,230.938 132.547,230.051 133.033 M228.531 133.716 C 228.253 133.827,228.025 133.973,228.025 134.039 C 228.025 134.257,228.383 134.163,228.826 133.828 C 229.324 133.452,229.254 133.425,228.531 133.716 M226.956 134.494 C 226.553 134.669,226.224 134.863,226.224 134.924 C 226.224 135.098,227.560 134.589,227.701 134.362 C 227.859 134.106,227.841 134.110,226.956 134.494 M225.380 135.291 C 225.101 135.403,224.873 135.549,224.873 135.615 C 224.873 135.833,225.232 135.739,225.674 135.404 C 226.172 135.027,226.103 135.001,225.380 135.291 M221.947 136.972 C 220.647 137.641,219.656 138.193,219.744 138.199 C 219.913 138.211,224.436 136.022,224.618 135.840 C 224.945 135.513,224.041 135.896,221.947 136.972 M182.785 136.553 C 182.778 136.911,184.832 140.735,184.961 140.606 C 185.019 140.548,184.916 140.264,184.732 139.975 C 184.549 139.685,184.036 138.739,183.594 137.873 C 183.151 137.006,182.787 136.412,182.785 136.553 M217.171 139.505 C 216.425 140.360,216.314 140.815,216.840 140.855 C 217.217 140.883,217.253 140.846,216.998 140.688 C 216.719 140.516,216.746 140.379,217.176 139.798 C 217.727 139.052,217.725 138.870,217.171 139.505 M214.744 141.137 C 213.972 142.666,214.013 142.998,214.793 141.531 C 215.428 140.337,215.660 139.786,215.528 139.786 C 215.472 139.786,215.119 140.394,214.744 141.137 M186.370 143.500 C 187.143 144.986,187.867 146.298,187.979 146.415 C 188.299 146.752,188.224 146.250,187.878 145.745 C 187.711 145.501,187.092 144.389,186.503 143.275 C 185.914 142.161,185.327 141.148,185.198 141.024 C 185.070 140.900,185.597 142.015,186.370 143.500 M213.168 144.063 C 212.793 144.806,212.537 145.414,212.599 145.414 C 212.661 145.414,213.018 144.806,213.393 144.063 C 213.768 143.320,214.024 142.712,213.963 142.712 C 213.901 142.712,213.543 143.320,213.168 144.063 M209.219 151.435 C 205.513 158.381,205.845 157.734,206.132 157.456 C 206.260 157.333,206.895 156.218,207.545 154.980 C 208.194 153.742,208.951 152.324,209.227 151.829 C 209.504 151.334,210.215 150.017,210.807 148.903 C 211.400 147.788,211.955 146.775,212.041 146.652 C 212.251 146.350,212.500 145.639,212.395 145.639 C 212.350 145.639,210.920 148.247,209.219 151.435 M188.869 148.138 C 189.250 148.893,189.606 149.467,189.659 149.414 C 189.765 149.308,188.436 146.764,188.275 146.764 C 188.220 146.764,188.488 147.382,188.869 148.138 M190.433 151.041 C 190.808 151.784,191.166 152.392,191.228 152.392 C 191.290 152.392,191.033 151.784,190.658 151.041 C 190.283 150.298,189.926 149.690,189.864 149.690 C 189.802 149.690,190.058 150.298,190.433 151.041 M189.113 152.997 C 188.696 153.172,188.409 153.368,188.475 153.434 C 188.540 153.500,188.799 153.444,189.049 153.310 C 190.130 152.732,190.666 153.349,189.702 154.062 C 189.261 154.388,189.289 154.387,189.913 154.049 C 190.492 153.736,190.590 153.585,190.418 153.264 C 190.105 152.679,189.948 152.647,189.113 152.997 M191.710 153.464 C 191.780 153.745,191.927 154.029,192.036 154.097 C 192.344 154.287,192.269 153.875,191.908 153.391 C 191.593 152.970,191.586 152.972,191.710 153.464 M187.226 153.871 C 186.885 154.056,186.607 154.249,186.607 154.300 C 186.607 154.462,187.952 153.933,188.083 153.720 C 188.264 153.428,187.937 153.485,187.226 153.871 M182.383 156.268 C 180.369 157.269,178.763 158.129,178.813 158.179 C 178.864 158.230,180.613 157.409,182.700 156.356 C 184.787 155.303,186.393 154.443,186.269 154.445 C 186.145 154.448,184.396 155.268,182.383 156.268 M192.564 155.037 C 192.760 155.439,192.969 155.768,193.028 155.768 C 193.252 155.768,193.107 155.410,192.666 154.868 L 192.207 154.305 192.564 155.037 M205.515 158.244 C 205.371 158.513,205.304 158.784,205.366 158.846 C 205.428 158.907,205.596 158.738,205.740 158.469 C 205.884 158.201,205.951 157.930,205.889 157.868 C 205.827 157.806,205.659 157.975,205.515 158.244 M177.659 158.580 C 177.257 158.755,176.927 158.948,176.927 159.010 C 176.927 159.184,178.263 158.675,178.404 158.447 C 178.562 158.192,178.544 158.195,177.659 158.580 M175.746 159.498 C 175.405 159.683,175.127 159.880,175.127 159.935 C 175.127 160.060,176.289 159.574,176.579 159.327 C 176.931 159.026,176.423 159.131,175.746 159.498 M204.727 159.820 C 204.535 160.191,204.429 160.495,204.490 160.495 C 204.552 160.495,204.760 160.191,204.952 159.820 C 205.144 159.449,205.251 159.145,205.189 159.145 C 205.127 159.145,204.919 159.449,204.727 159.820 M172.425 161.171 C 171.249 161.777,170.388 162.273,170.512 162.273 C 170.636 162.273,171.699 161.777,172.876 161.171 C 174.052 160.564,174.913 160.068,174.789 160.068 C 174.665 160.068,173.602 160.564,172.425 161.171 M203.939 161.171 C 203.795 161.439,203.728 161.710,203.790 161.772 C 203.852 161.834,204.020 161.664,204.164 161.396 C 204.308 161.127,204.375 160.856,204.313 160.794 C 204.251 160.732,204.083 160.902,203.939 161.171 M169.330 162.632 C 168.928 162.806,168.599 163.000,168.599 163.061 C 168.599 163.235,169.935 162.727,170.076 162.499 C 170.233 162.244,170.216 162.247,169.330 162.632 M202.703 163.552 C 202.371 164.119,202.152 164.635,202.216 164.700 C 202.280 164.764,202.595 164.300,202.915 163.669 C 203.638 162.242,203.512 162.172,202.703 163.552 M165.650 164.456 C 164.238 165.149,162.451 166.012,161.677 166.374 C 160.317 167.010,159.742 167.438,160.777 167.044 C 161.421 166.798,168.196 163.449,168.341 163.305 C 168.605 163.040,168.050 163.277,165.650 164.456 M159.244 167.575 C 158.822 167.890,158.825 167.897,159.317 167.773 C 159.597 167.702,159.882 167.555,159.949 167.446 C 160.140 167.138,159.728 167.213,159.244 167.575 M157.850 168.259 C 157.448 168.434,157.119 168.627,157.119 168.689 C 157.119 168.863,158.455 168.354,158.596 168.126 C 158.753 167.871,158.735 167.874,157.850 168.259 " stroke="none" fill="#c3aa8d" fill-rule="evenodd"></path><path id="path4" d="M157.443 57.295 C 157.683 57.476,157.981 57.625,158.105 57.625 C 158.229 57.625,158.134 57.476,157.893 57.295 C 157.653 57.113,157.355 56.964,157.231 56.964 C 157.107 56.964,157.203 57.113,157.443 57.295 M159.820 58.385 C 159.820 58.432,160.833 58.956,162.071 59.550 C 163.309 60.143,164.322 60.713,164.322 60.815 C 164.322 60.918,164.462 61.002,164.634 61.002 C 164.936 61.002,169.854 63.313,174.676 65.721 C 177.249 67.005,178.053 67.353,178.053 67.182 C 178.053 67.122,176.913 66.528,175.521 65.864 C 174.128 65.199,170.066 63.226,166.495 61.478 C 160.086 58.341,159.820 58.218,159.820 58.385 M178.278 67.398 C 178.278 67.449,179.164 67.930,180.248 68.467 L 182.217 69.443 217.670 69.499 C 237.169 69.529,253.253 69.555,253.412 69.555 C 253.571 69.555,253.783 69.780,253.885 70.054 L 254.069 70.552 254.328 70.068 C 254.470 69.803,254.586 69.477,254.586 69.345 C 254.586 69.176,244.305 69.105,219.913 69.105 C 188.484 69.105,185.183 69.071,184.629 68.744 C 184.068 68.412,184.054 68.412,184.455 68.744 C 185.510 69.617,182.277 69.197,180.304 68.205 C 178.539 67.318,178.278 67.213,178.278 67.398 M149.859 69.054 C 147.414 69.087,145.414 69.165,145.414 69.227 C 145.414 69.334,146.541 71.595,146.691 71.788 C 147.048 72.247,146.929 71.424,146.549 70.809 C 145.821 69.631,145.932 69.599,150.755 69.570 C 153.196 69.556,155.280 69.458,155.385 69.353 C 155.691 69.048,154.601 68.989,149.859 69.054 M150.478 70.015 C 148.869 70.082,159.221 70.183,173.483 70.240 C 187.746 70.297,199.340 70.268,199.248 70.177 C 199.053 69.982,154.797 69.835,150.478 70.015 M200.710 70.174 C 200.616 70.327,218.478 70.326,243.106 70.172 C 248.244 70.139,240.830 70.089,226.631 70.059 C 212.432 70.030,200.767 70.082,200.710 70.174 M252.627 70.381 C 252.701 70.501,252.559 70.934,252.312 71.341 C 252.064 71.749,251.910 72.131,251.970 72.191 C 252.030 72.251,252.288 71.891,252.543 71.390 C 252.875 70.741,252.933 70.435,252.749 70.321 C 252.607 70.233,252.552 70.260,252.627 70.381 M253.307 71.075 C 253.229 71.292,253.125 71.545,253.075 71.638 C 253.025 71.730,253.075 71.806,253.186 71.806 C 253.298 71.806,253.504 71.553,253.645 71.244 C 253.809 70.884,253.819 70.681,253.674 70.681 C 253.549 70.681,253.384 70.858,253.307 71.075 M199.548 118.289 C 199.548 143.669,199.574 154.018,199.606 141.288 C 199.638 128.557,199.638 107.792,199.606 95.142 C 199.574 82.493,199.548 92.909,199.548 118.289 M250.743 74.316 C 250.346 75.102,249.865 75.999,249.674 76.308 C 249.483 76.618,249.439 76.770,249.576 76.646 C 249.967 76.294,251.706 73.128,251.578 73.000 C 251.516 72.938,251.140 73.530,250.743 74.316 M148.565 73.232 C 148.565 73.469,150.440 76.759,150.526 76.673 C 150.569 76.631,150.182 75.848,149.668 74.933 C 148.670 73.159,148.565 72.997,148.565 73.232 M252.190 73.423 C 251.730 74.140,251.474 74.733,251.625 74.733 C 251.847 74.733,252.633 73.379,252.492 73.239 C 252.431 73.177,252.295 73.260,252.190 73.423 M200.448 116.939 C 200.448 140.833,200.474 150.574,200.506 138.586 C 200.539 126.599,200.539 107.049,200.506 95.142 C 200.474 83.236,200.448 93.044,200.448 116.939 M150.591 77.045 C 150.591 77.392,153.472 82.611,153.663 82.611 C 153.774 82.611,151.389 78.066,150.891 77.328 C 150.726 77.083,150.591 76.956,150.591 77.045 M248.141 79.187 C 247.506 80.390,246.417 82.429,245.721 83.720 C 245.026 85.010,244.457 86.120,244.457 86.185 C 244.457 86.498,244.966 85.717,245.758 84.187 C 246.239 83.258,247.258 81.337,248.023 79.917 C 248.788 78.498,249.388 77.261,249.355 77.169 C 249.323 77.077,248.777 77.985,248.141 79.187 M150.054 78.056 C 150.192 78.147,150.379 78.457,150.469 78.745 C 150.558 79.033,150.676 79.224,150.730 79.170 C 150.921 78.980,150.373 77.884,150.090 77.888 C 149.890 77.890,149.879 77.941,150.054 78.056 M249.409 78.316 C 249.409 78.430,249.350 78.708,249.278 78.935 C 249.158 79.312,249.178 79.310,249.503 78.910 C 249.911 78.410,249.960 78.109,249.634 78.109 C 249.510 78.109,249.409 78.202,249.409 78.316 M151.403 80.679 C 151.478 80.875,151.638 81.035,151.759 81.035 C 152.055 81.035,151.870 80.524,151.533 80.412 C 151.369 80.357,151.319 80.460,151.403 80.679 M153.746 82.882 C 153.739 83.212,154.273 84.187,154.462 84.187 C 154.648 84.187,154.487 83.811,153.978 83.061 C 153.852 82.876,153.748 82.795,153.746 82.882 M153.535 84.142 C 153.516 84.461,154.138 85.763,154.311 85.763 C 154.538 85.763,154.402 85.104,154.116 84.818 C 153.950 84.652,153.756 84.366,153.684 84.183 C 153.593 83.953,153.547 83.940,153.535 84.142 M155.161 85.664 C 156.071 87.477,154.978 87.343,169.303 87.400 L 182.217 87.451 182.330 112.144 C 182.417 131.289,182.505 136.900,182.720 137.115 C 182.940 137.335,182.953 137.237,182.783 136.644 C 182.652 136.190,182.569 126.374,182.570 111.693 C 182.571 98.382,182.488 87.406,182.385 87.304 C 182.283 87.201,176.328 87.091,169.153 87.059 L 156.108 87.001 155.536 85.942 C 154.746 84.480,154.460 84.268,155.161 85.664 M245.938 85.031 C 245.720 85.248,245.132 86.646,245.132 86.949 C 245.132 87.076,245.389 86.696,245.704 86.105 C 246.235 85.106,246.338 84.633,245.938 85.031 M154.432 86.100 C 154.432 86.224,154.581 86.522,154.762 86.762 C 154.944 87.003,155.093 87.098,155.093 86.974 C 155.093 86.850,154.944 86.552,154.762 86.312 C 154.581 86.072,154.432 85.976,154.432 86.100 M244.076 86.757 C 243.901 87.070,242.392 87.116,230.718 87.168 L 217.558 87.226 217.445 111.986 L 217.333 136.747 216.822 137.704 C 216.540 138.230,216.361 138.661,216.424 138.661 C 216.486 138.661,216.792 138.158,217.104 137.543 L 217.670 136.425 217.670 112.237 C 217.670 98.935,217.731 87.892,217.805 87.698 C 217.926 87.384,219.347 87.346,230.904 87.348 C 244.023 87.350,245.151 87.282,244.408 86.539 C 244.334 86.465,244.184 86.563,244.076 86.757 M155.350 87.870 C 155.509 88.225,155.679 88.392,155.729 88.242 C 155.779 88.092,155.650 87.802,155.441 87.597 C 155.085 87.249,155.079 87.267,155.350 87.870 M244.176 87.718 C 243.636 87.859,243.677 88.239,244.232 88.239 C 244.482 88.239,244.682 88.089,244.682 87.901 C 244.682 87.715,244.657 87.575,244.626 87.589 C 244.595 87.604,244.392 87.662,244.176 87.718 M222.510 88.125 C 223.091 88.322,224.873 88.386,224.873 88.211 C 224.873 88.102,224.291 88.022,223.579 88.031 C 222.867 88.041,222.386 88.083,222.510 88.125 M223.397 89.484 C 223.637 89.666,223.941 89.811,224.072 89.807 C 224.203 89.803,224.114 89.651,223.874 89.469 C 223.633 89.288,223.329 89.142,223.198 89.146 C 223.067 89.150,223.157 89.302,223.397 89.484 M225.098 90.264 C 225.532 90.502,225.988 90.696,226.111 90.696 C 226.235 90.696,225.982 90.502,225.549 90.264 C 225.115 90.027,224.660 89.833,224.536 89.833 C 224.412 89.833,224.665 90.027,225.098 90.264 M226.449 90.826 C 226.449 90.976,230.078 92.788,230.178 92.688 C 230.222 92.644,229.402 92.182,228.354 91.663 C 227.306 91.143,226.449 90.767,226.449 90.826 M232.876 94.073 C 233.132 94.322,235.678 95.457,235.678 95.323 C 235.678 95.217,233.005 93.866,232.796 93.866 C 232.722 93.866,232.758 93.959,232.876 94.073 M237.254 96.230 C 238.059 96.651,238.818 96.996,238.942 96.996 C 239.066 96.996,238.509 96.651,237.704 96.230 C 236.899 95.808,236.140 95.464,236.016 95.464 C 235.892 95.464,236.449 95.808,237.254 96.230 M244.583 99.824 C 244.823 100.006,245.121 100.155,245.245 100.155 C 245.369 100.155,245.273 100.006,245.033 99.824 C 244.793 99.642,244.495 99.494,244.371 99.494 C 244.247 99.494,244.342 99.642,244.583 99.824 M247.158 101.069 C 248.087 101.552,248.948 101.947,249.071 101.947 C 249.195 101.947,248.537 101.552,247.608 101.069 C 246.680 100.586,245.819 100.191,245.695 100.191 C 245.571 100.191,246.230 100.586,247.158 101.069 M249.409 102.073 C 249.409 102.265,251.696 103.359,251.826 103.229 C 251.893 103.162,251.680 103.006,251.352 102.881 C 251.025 102.757,250.453 102.498,250.083 102.306 C 249.712 102.115,249.409 102.010,249.409 102.073 M253.017 103.840 C 253.224 104.067,259.140 106.945,259.225 106.860 C 259.270 106.815,257.978 106.127,256.354 105.331 C 253.300 103.834,252.815 103.617,253.017 103.840 M260.889 107.685 C 260.889 107.825,261.937 108.393,262.801 108.722 C 263.752 109.083,263.428 108.773,262.296 108.238 C 261.708 107.960,261.151 107.694,261.058 107.646 C 260.965 107.598,260.889 107.616,260.889 107.685 M263.590 109.066 C 263.590 109.192,266.926 110.755,267.152 110.735 C 267.315 110.721,264.938 109.496,264.097 109.161 C 263.818 109.050,263.590 109.007,263.590 109.066 M267.417 110.852 C 267.417 111.023,270.147 112.370,270.262 112.256 C 270.315 112.202,269.976 111.979,269.507 111.760 C 269.039 111.542,268.376 111.222,268.036 111.050 C 267.696 110.878,267.417 110.789,267.417 110.852 M270.423 112.894 C 270.192 113.383,270.208 113.399,270.711 113.170 C 271.303 112.900,271.391 112.654,270.955 112.487 C 270.797 112.426,270.557 112.609,270.423 112.894 M263.915 116.256 C 263.674 116.438,263.579 116.587,263.703 116.587 C 263.827 116.587,264.125 116.438,264.365 116.256 C 264.605 116.074,264.701 115.926,264.577 115.926 C 264.453 115.926,264.155 116.074,263.915 116.256 M256.387 119.977 C 255.706 120.337,255.250 120.632,255.374 120.632 C 255.498 120.632,256.156 120.337,256.837 119.977 C 257.518 119.618,257.974 119.323,257.850 119.323 C 257.727 119.323,257.068 119.618,256.387 119.977 M253.785 121.204 C 253.364 121.519,253.366 121.526,253.858 121.402 C 254.139 121.332,254.423 121.185,254.491 121.076 C 254.681 120.768,254.269 120.843,253.785 121.204 M250.659 122.694 C 249.675 123.180,248.764 123.690,248.633 123.826 C 248.430 124.040,252.506 122.105,252.767 121.865 C 253.064 121.591,252.228 121.920,250.659 122.694 M245.457 125.256 C 245.035 125.571,245.038 125.578,245.530 125.454 C 245.810 125.383,246.095 125.236,246.162 125.128 C 246.352 124.820,245.941 124.895,245.457 125.256 M239.334 128.245 C 237.940 128.936,236.840 129.543,236.890 129.593 C 236.940 129.643,238.182 129.076,239.650 128.332 C 241.118 127.588,242.217 126.981,242.093 126.984 C 241.970 126.986,240.728 127.554,239.334 128.245 M235.734 130.013 C 235.332 130.189,235.003 130.378,235.003 130.434 C 235.003 130.600,236.345 130.078,236.480 129.860 C 236.630 129.617,236.651 129.612,235.734 130.013 M233.977 130.884 C 233.555 131.199,233.558 131.205,234.050 131.081 C 234.330 131.011,234.615 130.864,234.682 130.755 C 234.872 130.447,234.461 130.522,233.977 130.884 M230.093 132.737 C 228.444 133.544,227.138 134.247,227.190 134.299 C 227.242 134.351,228.414 133.834,229.796 133.151 C 231.177 132.467,232.382 131.904,232.473 131.901 C 232.565 131.897,232.836 131.745,233.076 131.563 C 233.880 130.955,233.113 131.257,230.093 132.737 M225.158 135.143 C 224.386 135.547,223.677 135.963,223.582 136.067 C 223.488 136.172,223.512 136.202,223.635 136.135 C 223.759 136.068,224.367 135.785,224.986 135.507 C 226.187 134.966,227.141 134.376,226.781 134.396 C 226.660 134.402,225.930 134.739,225.158 135.143 M219.967 137.716 C 216.939 139.241,215.303 140.848,215.726 141.884 C 215.786 142.033,215.842 141.988,215.852 141.780 C 215.862 141.575,216.144 141.338,216.488 141.248 C 216.989 141.116,217.033 141.057,216.717 140.940 C 215.741 140.579,217.052 139.424,220.309 137.777 C 222.015 136.914,223.309 136.208,223.185 136.209 C 223.061 136.209,221.613 136.888,219.967 137.716 M183.680 138.886 C 184.055 139.629,184.413 140.236,184.475 140.236 C 184.537 140.236,184.280 139.629,183.905 138.886 C 183.530 138.143,183.173 137.535,183.111 137.535 C 183.049 137.535,183.305 138.143,183.680 138.886 M215.298 140.518 C 214.429 142.258,214.546 142.378,215.463 140.687 C 216.077 139.555,216.354 138.886,216.209 138.886 C 216.156 138.886,215.746 139.620,215.298 140.518 M185.256 141.812 C 185.631 142.555,185.988 143.163,186.050 143.163 C 186.112 143.163,185.856 142.555,185.481 141.812 C 185.106 141.069,184.749 140.461,184.687 140.461 C 184.625 140.461,184.881 141.069,185.256 141.812 M213.829 143.197 C 213.556 143.735,212.886 145.011,212.341 146.033 C 211.795 147.054,211.394 147.890,211.451 147.890 C 211.579 147.890,213.398 144.737,214.038 143.405 C 214.661 142.107,214.476 141.922,213.829 143.197 M213.891 144.851 C 213.621 145.408,213.480 145.864,213.580 145.864 C 213.727 145.864,214.132 145.193,214.701 144.007 C 214.745 143.914,214.692 143.838,214.582 143.838 C 214.473 143.838,214.162 144.294,213.891 144.851 M187.865 146.708 C 190.216 151.089,190.695 151.941,190.806 151.941 C 190.870 151.941,190.394 150.954,189.748 149.747 C 187.827 146.156,187.024 144.738,186.913 144.738 C 186.855 144.738,187.284 145.625,187.865 146.708 M212.793 147.046 C 212.311 147.814,211.885 148.790,212.031 148.790 C 212.171 148.790,212.759 147.782,212.818 147.440 C 212.829 147.378,212.918 147.200,213.016 147.046 C 213.114 146.891,213.144 146.764,213.082 146.764 C 213.020 146.764,212.890 146.891,212.793 147.046 M210.949 148.597 C 210.791 148.851,210.710 149.108,210.771 149.169 C 210.831 149.229,210.999 149.059,211.142 148.790 C 211.483 148.154,211.325 147.996,210.949 148.597 M209.220 151.869 C 208.511 153.209,207.792 154.529,207.623 154.804 C 207.454 155.078,207.316 155.379,207.316 155.473 C 207.316 155.741,207.944 154.775,208.694 153.355 C 209.072 152.639,209.679 151.508,210.043 150.841 C 210.407 150.174,210.660 149.584,210.607 149.530 C 210.553 149.476,209.929 150.529,209.220 151.869 M210.052 151.943 C 209.283 153.411,209.247 153.517,209.529 153.517 C 209.737 153.517,210.995 150.819,210.853 150.677 C 210.804 150.627,210.443 151.197,210.052 151.943 M191.265 152.952 C 191.471 153.383,191.679 153.697,191.728 153.648 C 191.831 153.545,191.148 152.167,190.994 152.167 C 190.937 152.167,191.059 152.520,191.265 152.952 M190.273 153.067 C 190.615 153.555,190.614 153.613,190.256 153.881 C 189.903 154.146,189.908 154.161,190.321 154.059 C 190.692 153.967,190.918 154.235,191.611 155.589 C 192.073 156.492,192.453 157.049,192.455 156.827 C 192.460 156.379,190.539 152.934,190.151 152.694 C 190.016 152.610,190.071 152.778,190.273 153.067 M186.481 154.073 C 186.241 154.255,186.145 154.403,186.269 154.403 C 186.393 154.403,186.691 154.255,186.931 154.073 C 187.171 153.891,187.267 153.742,187.143 153.742 C 187.019 153.742,186.721 153.891,186.481 154.073 M208.933 154.016 C 208.617 154.331,208.585 154.643,208.867 154.643 C 209.074 154.643,209.413 153.964,209.276 153.826 C 209.233 153.784,209.079 153.870,208.933 154.016 M193.129 156.556 C 194.404 159.009,194.935 159.895,194.935 159.565 C 194.935 159.354,192.198 154.314,191.957 154.080 C 191.829 153.956,192.357 155.070,193.129 156.556 M184.074 155.220 C 183.239 155.649,182.555 156.050,182.555 156.112 C 182.555 156.212,185.684 154.714,185.913 154.504 C 186.220 154.221,185.390 154.544,184.074 155.220 M208.072 155.569 C 207.820 155.995,207.545 156.645,207.460 157.013 C 207.340 157.532,207.462 157.417,208.005 156.500 C 208.389 155.849,208.664 155.200,208.616 155.056 C 208.568 154.912,208.323 155.143,208.072 155.569 M181.453 156.463 C 181.156 156.581,180.970 156.735,181.039 156.804 C 181.108 156.872,181.452 156.773,181.803 156.583 C 182.510 156.199,182.295 156.126,181.453 156.463 M179.547 157.444 C 178.944 157.739,178.337 158.097,178.196 158.239 C 178.055 158.382,178.573 158.185,179.347 157.802 C 180.121 157.419,180.754 157.058,180.754 157.000 C 180.754 156.851,180.764 156.848,179.547 157.444 M205.935 157.965 C 205.628 158.552,204.743 160.222,203.969 161.677 C 203.194 163.132,202.643 164.320,202.744 164.317 C 202.951 164.311,206.716 157.119,206.582 156.985 C 206.534 156.937,206.243 157.378,205.935 157.965 M176.351 159.021 C 175.930 159.336,175.932 159.343,176.424 159.219 C 176.705 159.148,176.989 159.001,177.057 158.892 C 177.247 158.584,176.835 158.659,176.351 159.021 M193.595 159.389 C 193.733 159.647,193.901 159.804,193.968 159.736 C 194.154 159.551,193.857 158.920,193.584 158.920 C 193.417 158.920,193.421 159.063,193.595 159.389 M175.001 159.700 C 174.760 159.882,174.665 160.031,174.789 160.031 C 174.913 160.031,175.211 159.882,175.451 159.700 C 175.691 159.518,175.787 159.370,175.663 159.370 C 175.539 159.370,175.241 159.518,175.001 159.700 M194.963 159.933 C 195.096 160.288,196.926 163.876,197.546 164.997 C 197.854 165.554,198.270 166.162,198.469 166.348 C 198.730 166.591,198.704 166.464,198.378 165.898 C 198.128 165.464,197.340 163.995,196.626 162.634 C 195.518 160.519,194.663 159.131,194.963 159.933 M170.781 161.678 C 169.072 162.541,167.712 163.285,167.760 163.333 C 167.808 163.381,169.359 162.667,171.206 161.747 C 173.053 160.827,174.412 160.082,174.226 160.092 C 174.041 160.102,172.490 160.816,170.781 161.678 M200.410 163.196 C 200.410 164.001,200.451 164.330,200.500 163.928 C 200.550 163.526,200.550 162.867,200.500 162.465 C 200.451 162.062,200.410 162.392,200.410 163.196 M165.391 164.337 C 164.927 164.582,164.547 164.833,164.547 164.895 C 164.547 164.995,166.325 164.164,166.554 163.957 C 166.813 163.722,166.137 163.943,165.391 164.337 M199.489 165.447 C 199.489 165.881,199.536 166.058,199.592 165.841 C 199.649 165.625,199.649 165.270,199.592 165.053 C 199.536 164.837,199.489 165.014,199.489 165.447 M197.220 166.123 C 197.572 167.132,198.126 167.496,197.851 166.537 C 197.733 166.125,197.636 165.773,197.636 165.754 C 197.636 165.736,197.492 165.665,197.315 165.597 C 197.053 165.497,197.035 165.592,197.220 166.123 M201.451 166.291 C 200.942 167.305,200.949 167.405,201.474 166.620 C 201.747 166.212,201.923 165.832,201.865 165.775 C 201.808 165.717,201.622 165.950,201.451 166.291 M159.694 167.124 C 159.273 167.439,159.275 167.446,159.767 167.322 C 160.048 167.252,160.332 167.105,160.399 166.996 C 160.590 166.688,160.178 166.763,159.694 167.124 M198.619 168.826 C 198.880 169.303,199.121 169.666,199.154 169.633 C 199.302 169.484,198.700 168.173,198.437 168.072 C 198.251 168.001,198.318 168.277,198.619 168.826 M201.550 168.096 C 201.412 168.187,201.222 168.514,201.128 168.824 C 200.936 169.457,200.986 169.423,201.536 168.542 C 201.947 167.886,201.949 167.833,201.550 168.096 M156.704 168.613 C 156.414 168.730,156.085 168.768,155.972 168.698 C 155.860 168.629,155.768 168.728,155.768 168.918 C 155.768 169.210,155.866 169.223,156.387 169.001 C 157.436 168.556,157.722 168.205,156.704 168.613 M199.470 171.300 C 199.455 172.090,199.501 172.226,199.680 171.919 C 199.807 171.702,199.999 171.525,200.107 171.525 C 200.216 171.525,200.351 171.702,200.408 171.919 C 200.464 172.136,200.514 171.908,200.519 171.412 C 200.523 170.917,200.476 170.639,200.414 170.793 C 200.246 171.209,199.711 171.135,199.592 170.681 C 199.536 170.464,199.481 170.743,199.470 171.300 " stroke="none" fill="#a87c48" fill-rule="evenodd"></path></g></svg>